/* XPM */
static char * launch_icon2_xpm[] = {
"16 15 18 1",
" 	c None",
".	c #000000",
"+	c #FFFFFF",
"@	c #D38D1B",
"#	c #EDA11E",
"$	c #D8D8D8",
"%	c #A3A3A3",
"&	c #92D1DE",
"*	c #7BB0BB",
"=	c #567B82",
"-	c #233235",
";	c #800DA3",
">	c #9ADCEA",
",	c #04A404",
"'	c #F7D80C",
")	c #FFAA0C",
"!	c #FC0A0A",
"~	c #FF5811",
"................",
"...+....+....@@.",
".....+.....@@#@.",
".+........$##@..",
"........%$$$#@..",
"&*=-%%%%$$;$$...",
">>>*$$$$$;$$..+.",
">,>')!$$;$$%....",
",,')~!!$$$%.....",
",,,')~!!$$%....+",
",,,>')~!!$%.....",
",,,,>')~)$%..+..",
",,,,,>')'=......",
",,,>,>>'>*......",
",,,>>>>>>&.+...."};
