/* XPM */
static char * open_icon1_xpm[] = {
"32 32 7 1",
" 	c None",
".	c #FFFFFF",
"+	c #000000",
"@	c #BC9A54",
"#	c #C9AF78",
"$	c #CEB888",
"%	c #E8D3A4",
"................................",
"................................",
"................................",
"................................",
"................................",
"....+++++++.....................",
"...+@@@@@@@+....................",
"...+#######+....................",
"..+#########++++++++++++++++....",
"..+$$$$$$$$$$$$$$$$$$$$$$$$$+...",
"..+$$$$$$$$$$$$$$$$$$$$$$$$$+...",
"..+$$+++++++++++++++++++++++++..",
"..+$+%%%%%%%%%%%%%%%%%%%%%%%%%+.",
"..+$+%%+%%%+%%+%%%+%%+%%%%%%%%+.",
"..+$+%%%+%+%%%++%++%%+%%%%%%%%+.",
"..+$+%%%%+%%%%+%+%+%%+%%%%%%%+..",
"..+$+%%%+%+%%%+%%%+%%+%%%%%%%+..",
"..+$+%%+%%%+%%+%%%+%%+++++%%%+..",
"..++%%%%%%%%%%%%%%%%%%%%%%%%%+..",
"..++%%%%%%%%%%%%%%%%%%%%%%%%%+..",
"..++%%%%%%%%%%%%%%%%%%%%%%%%+...",
"..++$$$$$$$$$$$$$$$$$$$$$$$$+...",
"..++########################+...",
"..+@@@@@@@@@@@@@@@@@@@@@@@@@+...",
"...+++++++++++++++++++++++++....",
"................................",
"................................",
"................................",
"................................",
"................................",
"................................",
"................................"};
