/* XPM */
static char * save_icon1_xpm[] = {
"32 32 7 1",
" 	c None",
".	c #FFFFFF",
"+	c #1DD5E2",
"@	c #C5F1F9",
"#	c #000000",
"$	c #CECECE",
"%	c #949D9E",
"................................",
"................................",
"................................",
"................................",
".......+++++++++++++............",
".......+@@@@@@@@@@+@+...........",
".......+@#########+@@+..........",
".......+@@@@@@@@@@+@@@+.........",
".......+@@@@@@@@@@+@@@@+........",
".......+@#########+@@@@@+.......",
".......+@@@@@@@@@@+++++++.......",
".......+@@@@@@@@@@@@@@@@+.......",
".......+@##############@+.......",
".......+@@@@@@@@@@@@@@@@+.......",
".......+@@@@@@@@@@@@@@@@+.......",
".......+@##############@+.......",
".......+@@@@@@@@@@@@@@@@+.......",
".......+@@@@@@@@@@@@@@@@+.......",
".......+@##############@+.......",
".......+@@@@@@@@@@@@@@@@+.......",
".......+@@@@@@@@@@@@@@@@+.......",
".......+@##############@+.......",
".......+@@@@@@@@@@@@@@@@+$......",
".......+@@@@@@@@@@@@@@@@+%$%....",
".......+@##############@+$%$%$%.",
".......+@@@@@@@@@@@@@@@@+%$%$%$%",
".......+@@@@@@@@@@@@@@@@+$%$%...",
".......++++++++++++++++++%$.....",
"................................",
"................................",
"................................",
"................................"};
