/* XPM */
static char * accum_icon1_xpm[] = {
"16 16 10 1",
" 	c None",
".	c #EBEBF4",
"+	c #F3EFFF",
"@	c #FFFFFF",
"#	c #C9C3E5",
"$	c #613CE8",
"%	c #B2A5E5",
"&	c #DEDCE5",
"*	c #FBF9FF",
"=	c #743BE5",
".+@@@@@@@@@@@@@@",
"#.$$$$$$$$$$$$@@",
"%#$$$$$$$$$$$$@@",
"#%$$$$$$$$$$$$@@",
".#%$$$$%#&.+*@@@",
"..#%$$$$%#&.+*@@",
"+.&#%$$$$%#&.+*@",
"++.&#%$$$$%#&.+*",
"+.&#%$$$$%#&.+*@",
".&#%$$$$%#&.+*@@",
"&#%$$$$%#&.+*@@@",
"#%$$$$$$$$$$$$@@",
"%#$$$$$$$$$$$$@@",
"#.============@@",
".+@@@@@@@@@@@@@@",
"+@@@@@@@@@@@@@@@"};
