/* XPM */
static char * accum_icon2_xpm[] = {
"16 16 9 1",
" 	c None",
".	c #C9C3E5",
"+	c #B8B7B9",
"@	c #613CE8",
"#	c #DEDCE5",
"$	c #B2A5E5",
"%	c #D3D3D3",
"&	c #EBEBF4",
"*	c #743BE5",
"                ",
".+@@@@@@@@@@@@  ",
"..@@@@@@@@@@@@  ",
"..@@@@@@@@@@@@  ",
"#.$@@@@$.#%+    ",
"%#.$@@@@$.#%+   ",
"+%#.$@@@@$.#%+  ",
" +%#.$@@@@$.#%+ ",
"  +%#.$@@@@$.#%+",
" +%#.$@@@@$.#%+ ",
"+%#.$@@@@$.#%+  ",
"%#.$@@@@$.#%+   ",
"#.$@@@@$.#%+    ",
"..@@@@@@@@@@@@  ",
"..@@@@@@@@@@@@  ",
".&************  "};
