/* XPM */
static char * fmt_icon1_xpm[] = {
"16 16 16 1",
" 	c None",
".	c #0E7C77",
"+	c #CECECE",
"@	c #1DF2E7",
"#	c #F43022",
"$	c #F122F4",
"%	c #EDF422",
"&	c #72F422",
"*	c #7A00C1",
"=	c #225DF4",
"-	c #F48822",
";	c #EF233F",
">	c #2546EA",
",	c #ED657A",
"'	c #000000",
")	c #516EFF",
"                ",
"      .......   ",
"      .+++++.   ",
"      .@+#+$.   ",
"      .+%+&+.   ",
"      .*+=+-.   ",
"   ;  .+++++>   ",
"   ,; .''''')>  ",
";;;,,;.'>>>>))> ",
",,,,,,.')))))))>",
";;;,,;.'>>>>))> ",
"   ,; .''''')>  ",
"   ;  .+++++>   ",
"      .+++++.   ",
"      .......   ",
"                "};
