/* XPM */
static char * launch_icon1_xpm[] = {
"32 32 19 1",
" 	c None",
".	c #000000",
"+	c #96DBE9",
"@	c #B9E7F0",
"#	c #E4F6F9",
"$	c #55C5DB",
"%	c #76D0E2",
"&	c #B1E4EE",
"*	c #5AC7DC",
"=	c #A6E1EC",
"-	c #66CBDF",
";	c #C1EAF2",
">	c #04A404",
",	c #9ADCEA",
"'	c #82D4E4",
")	c #7AD2E3",
"!	c #3FBB68",
"~	c #05BC05",
"{	c #0A9B0A",
"................................",
"................................",
"................................",
"................................",
"................................",
"................................",
"................................",
"................................",
"................................",
"................................",
"................................",
"+@#.............................",
"$$$%&...........................",
"$$$$$*=.........................",
"$$$$$$$-;.......................",
"$$>>>$$$$,......................",
">>>>>$$$$$'.....................",
">>>>>$$$$$$)....................",
"!>>>>>$$$$$$'...................",
">>>>>~$$$$$$$,..................",
">>>>>>~$$$$$$$;.................",
">>>>>>~{$$$$$$-.................",
">>>>>>>$$$$$$$$=................",
">>>>>>>~$$$$$$$*................",
">>>>>>>>{$$$$$$$&...............",
">>>>>>>>~$$$$$$$%...............",
">>>>>${{{$>$$$$$$#..............",
">>>>~$$$$$$$$$$$$@..............",
">>>>~$$$$$$$$$$$$+..............",
">>>>>~>~$~>{$$$$$)..............",
">>>>>>~>~~>>>$$$$-..............",
">>>>>>>>>>>>$>$$$*.............."};
