/* XPM */
static char * launch_icon3_xpm[] = {
"16 15 21 1",
" 	c None",
".	c #000000",
"+	c #FFFFFF",
"@	c #D38D1B",
"#	c #EDA11E",
"$	c #D8D8D8",
"%	c #BCBCBC",
"&	c #A3A3A3",
"*	c #C814FF",
"=	c #FFAA0C",
"-	c #F7D80C",
";	c #FF5811",
">	c #FC0A0A",
",	c #55C5DB",
"'	c #3D8E9E",
")	c #091618",
"!	c #214D55",
"~	c #04A404",
"{	c #53C1D6",
"]	c #2D6974",
"^	c #46A3B5",
"................",
"...+....+....@@.",
".....+.....@@#@.",
".+........$##@..",
"........%%$$#@..",
"....&&&&$$*$$...",
"....$$$$$*$%..+.",
".....=$$*$$%....",
"..--=;>$$$&.....",
",')-=;>>$$&....+",
",,,!-=;;=$&.....",
"~,,,!-==.$&..+..",
"~~,,{)--........",
"~~~,,].-........",
"~~,,,^.....+...."};
