/* XPM */
static char * filter_icon1_xpm[] = {
"16 16 9 1",
". 	c None",
"+	c #ED0404",
"@	c #3E38ED",
"#	c #565656",
"$	c #999999",
"%	c #D8D4D4",
"&	c #ADAAAA",
"*	c #BABABA",
"=	c #00BC16",
"...+..@.........",
"....@..+.@.+....",
"......@...+.@...",
"...+.@..@.......",
"........+.@.+...",
"....+.@.........",
".#$%$%$%$%$%$&#.",
"..#$%$%$%$%$&#%.",
"..#&$%$%$%$%$#*%",
"...#&$&$&$&$#*%*",
"...##########%..",
".....=.=.=.=....",
"................",
".....=.=.=.=....",
"................",
".....=.=.=.=...."};
