/* XPM */
static char * fmt_icon4_xpm[] = {
"16 16 8 1",
" 	c None",
".	c #17A80A",
"+	c #56EF5D",
"@	c #000000",
"#	c #DD1F74",
"$	c #DB6B9D",
"%	c #CECECE",
"&	c #949D9E",
"                ",
"   ........     ",
"   .+++++.+.    ",
"   .++@@@.++.   ",
"   .++@@+....   ",
"  #.++@+++++.   ",
"  $#++++++++.   ",
"##$$#+@+@+++.   ",
"$$$$$#@@@+++.   ",
"##$$#+@+@+++.   ",
"  $#++++++++.   ",
"  #.++@@@+++.   ",
"   .+++@++++.%  ",
"   .+++@++++.&%&",
"   .++++++++.%& ",
"   ..........&  "};
