/* XPM */
static char * fmt_icon2_xpm[] = {
"16 16 6 1",
" 	c None",
".	c #000000",
"+	c #EF233F",
"@	c #2546EA",
"#	c #ED657A",
"$	c #516EFF",
"                ",
"       ..       ",
"       ..       ",
"       ..       ",
"       ..       ",
"   +   ..   @   ",
"   #+  ..   $@  ",
"+++##+ ..@@@$$@ ",
"######+..$$$$$$@",
"+++##+ ..@@@$$@ ",
"   #+  ..   $@  ",
"   +   ..   @   ",
"       ..       ",
"       ..       ",
"       ..       ",
"                "};
