/* XPM */
static char * fmt_icon3_xpm[] = {
"16 16 6 1",
" 	c None",
".	c #EF233F",
"+	c #2546EA",
"@	c #EA96A4",
"#	c #8296FF",
"$	c #000000",
"                ",
"                ",
"....      ++++  ",
".@@..     +##++ ",
".@@.@.    +##+#+",
".@@... $  +##+++",
".@@@@. $$ +####+",
".@@@@.$$$$+####+",
".@@@@.$$$$+####+",
".@@@@. $$ +####+",
".@@@@. $  +####+",
".@@@@.    +####+",
".@@@@.    +####+",
"......    ++++++",
"                ",
"                "};
