/* XPM */
static char * save_icon4_xpm[] = {
"16 16 9 1",
" 	c None",
".	c #FFFFFF",
"+	c #1DD5E2",
"@	c #C5F1F9",
"#	c #000000",
"$	c #DD1F74",
"%	c #DB6B9D",
"&	c #CECECE",
"*	c #949D9E",
"................",
"...++++++++.....",
"...+@@@@@+@+....",
"...+@@#@#+@@+...",
"...+@@@#@++++...",
"..$+@@#@#@@@+...",
"..%$@@@@@@@@+...",
"$$%%$@#@#@@@+...",
"%%%%%$###@@@+...",
"$$%%$@#@#@@@+...",
"..%$@@@@@@@@+...",
"..$+@@#@@@@@+...",
"...+@@#@@@@@+&..",
"...+@@###@@@+*&*",
"...++++++++++&*.",
"................"};
