/* XPM */
static char * save_icon2_xpm[] = {
"16 16 7 1",
".	c None",
" 	c #FFFFFF",
"+	c #1DD5E2",
"@	c #C5F1F9",
"#	c #000000",
"$	c #CECECE",
"%	c #949D9E",
"................",
"...++++++++.....",
"...+@@@@@+@+....",
"...+@####+@@+...",
"...+@@@@@++++...",
"...+@######@+...",
"...+@@@@@@@@+...",
"...+@######@+...",
"...+@@@@@@@@+...",
"...+@######@+...",
"...+@@@@@@@@+...",
"...+@######@+...",
"...+@@@@@@@@+$..",
"...+@@@@@@@@+%$%",
"...++++++++++$%.",
"................"};
