/* XPM */
static char * sum_icon1_xpm[] = {
"16 16 4 1",
". 	c None",
"+	c #081CCE",
"@	c #B7B7B7",
"#	c #8C8C8C",
"................",
"................",
"......++++......",
"......++++......",
"......++++......",
"......++++......",
"..++++++++++++..",
"..++++++++++++@.",
"..++++++++++++#.",
"..++++++++++++..",
"......++++#@#@#.",
"......++++@#.#@.",
"......++++#.....",
"......++++......",
"................",
"................"};
